<?xml version="1.0" encoding="UTF-8" standalone="no"?>
<svg
   xmlns:dc="http://purl.org/dc/elements/1.1/"
   xmlns:cc="http://creativecommons.org/ns#"
   xmlns:rdf="http://www.w3.org/1999/02/22-rdf-syntax-ns#"
   xmlns:svg="http://www.w3.org/2000/svg"
   xmlns="http://www.w3.org/2000/svg"
   xmlns:sodipodi="http://sodipodi.sourceforge.net/DTD/sodipodi-0.dtd"
   xmlns:inkscape="http://www.inkscape.org/namespaces/inkscape"
   width="360pt"
   height="359pt"
   viewBox="0 0 360 359"
   version="1.1"
   id="svg1001"
   sodipodi:docname="disc10-ibexsolve.svg"
   inkscape:version="0.92.3 (2405546, 2018-03-11)">
  <metadata
     id="metadata1007">
    <rdf:RDF>
      <cc:Work
         rdf:about="">
        <dc:format>image/svg+xml</dc:format>
        <dc:type
           rdf:resource="http://purl.org/dc/dcmitype/StillImage" />
      </cc:Work>
    </rdf:RDF>
  </metadata>
  <defs
     id="defs1005" />
  <sodipodi:namedview
     pagecolor="#ffffff"
     bordercolor="#666666"
     borderopacity="1"
     objecttolerance="10"
     gridtolerance="10"
     guidetolerance="10"
     inkscape:pageopacity="0"
     inkscape:pageshadow="2"
     inkscape:window-width="1853"
     inkscape:window-height="1016"
     id="namedview1003"
     showgrid="false"
     inkscape:zoom="0.98607242"
     inkscape:cx="300.38147"
     inkscape:cy="372.12515"
     inkscape:window-x="1987"
     inkscape:window-y="27"
     inkscape:window-maximized="1"
     inkscape:current-layer="surface26" />
  <g
     id="surface26">
    <path
       style="fill-rule:nonzero;fill:#00b4b4;fill-opacity:1;stroke-width:0.03;stroke-linecap:square;stroke-linejoin:miter;stroke:#000000;stroke-opacity:1;stroke-miterlimit:3.239307"
       d="M 347.753906 129.148438 L 347.753906 64.574219 L 405.257812 64.574219 L 405.257812 129.148438 Z M 347.753906 129.148438 "
       transform="matrix(1,0,0,1,-66,-5)"
       id="path960" />
    <path
       style="fill:#00b4b4;stroke-width:1;stroke-linecap:square;stroke-linejoin:miter;stroke:#000000;stroke-opacity:1;stroke-miterlimit:3.25;fill-opacity:1"
       d="M 347.753906 129.148438 L 347.753906 64.574219 L 405.257812 64.574219 L 405.257812 129.148438 Z M 347.753906 129.148438 "
       transform="matrix(1,0,0,1,-66,-5)"
       id="path962" />
    <path
       style="fill-rule:nonzero;fill:#00b4b4;fill-opacity:1;stroke-width:0.03;stroke-linecap:square;stroke-linejoin:miter;stroke:#000000;stroke-opacity:1;stroke-miterlimit:3.25"
       d="M 311.820312 65.34375 L 311.820312 35.113281 L 350.863281 35.113281 L 350.863281 65.34375 Z M 311.820312 65.34375 "
       transform="matrix(1,0,0,1,-66,-5)"
       id="path964" />
    <path
       style="fill:#00b4b4;stroke-width:1;stroke-linecap:square;stroke-linejoin:miter;stroke:#000000;stroke-opacity:1;stroke-miterlimit:3.25;fill-opacity:1"
       d="M 311.820312 65.34375 L 311.820312 35.113281 L 350.863281 35.113281 L 350.863281 65.34375 Z M 311.820312 65.34375 "
       transform="matrix(1,0,0,1,-66,-5)"
       id="path966" />
    <path
       style="fill-rule:nonzero;fill:#00b4b4;fill-opacity:1;stroke-width:0.03;stroke-linecap:square;stroke-linejoin:miter;stroke:#000000;stroke-opacity:1;stroke-miterlimit:3.25"
       d="M 398.316406 204.507812 L 398.316406 129.148438 L 417.820312 129.148438 L 417.820312 204.507812 Z M 398.316406 204.507812 "
       transform="matrix(1,0,0,1,-66,-5)"
       id="path968" />
    <path
       style="fill:#00b4b4;stroke-width:1;stroke-linecap:square;stroke-linejoin:miter;stroke:#000000;stroke-opacity:1;stroke-miterlimit:3.25;fill-opacity:1"
       d="M 398.316406 204.507812 L 398.316406 129.148438 L 417.820312 129.148438 L 417.820312 204.507812 Z M 398.316406 204.507812 "
       transform="matrix(1,0,0,1,-66,-5)"
       id="path970" />
    <path
       style="fill-rule:nonzero;fill:#00b4b4;fill-opacity:1;stroke-width:0.03;stroke-linecap:square;stroke-linejoin:miter;stroke:#000000;stroke-opacity:1;stroke-miterlimit:3.25"
       d="M 225.675781 37.503906 L 225.675781 11.894531 L 311.820312 11.894531 L 311.820312 37.503906 Z M 225.675781 37.503906 "
       transform="matrix(1,0,0,1,-66,-5)"
       id="path972" />
    <path
       style="fill:#00b4b4;stroke-width:1;stroke-linecap:square;stroke-linejoin:miter;stroke:#000000;stroke-opacity:1;stroke-miterlimit:3.25;fill-opacity:1"
       d="M 225.675781 37.503906 L 225.675781 11.894531 L 311.820312 11.894531 L 311.820312 37.503906 Z M 225.675781 37.503906 "
       transform="matrix(1,0,0,1,-66,-5)"
       id="path974" />
    <path
       style="fill-rule:nonzero;fill:#00b4b4;fill-opacity:1;stroke-width:0.03;stroke-linecap:square;stroke-linejoin:miter;stroke:#000000;stroke-opacity:1;stroke-miterlimit:3.25"
       d="M 409.347656 269.875 L 409.347656 204.507812 L 417.453125 204.507812 L 417.453125 269.875 Z M 409.347656 269.875 "
       transform="matrix(1,0,0,1,-66,-5)"
       id="path976" />
    <path
       style="fill:#00b4b4;stroke-width:1;stroke-linecap:square;stroke-linejoin:miter;stroke:#000000;stroke-opacity:1;stroke-miterlimit:3.25;fill-opacity:1"
       d="M 409.347656 269.875 L 409.347656 204.507812 L 417.453125 204.507812 L 417.453125 269.875 Z M 409.347656 269.875 "
       transform="matrix(1,0,0,1,-66,-5)"
       id="path978" />
    <path
       style="fill-rule:nonzero;fill:#00b4b4;fill-opacity:1;stroke-width:0.03;stroke-linecap:square;stroke-linejoin:miter;stroke:#000000;stroke-opacity:1;stroke-miterlimit:3.25"
       d="M 384.429688 323.355469 L 384.429688 269.875 L 410.730469 269.875 L 410.730469 323.355469 Z M 384.429688 323.355469 "
       transform="matrix(1,0,0,1,-66,-5)"
       id="path980" />
    <path
       style="fill:#00b4b4;stroke-width:1;stroke-linecap:square;stroke-linejoin:miter;stroke:#000000;stroke-opacity:1;stroke-miterlimit:3.25;fill-opacity:1"
       d="M 384.429688 323.355469 L 384.429688 269.875 L 410.730469 269.875 L 410.730469 323.355469 Z M 384.429688 323.355469 "
       transform="matrix(1,0,0,1,-66,-5)"
       id="path982" />
    <path
       style="fill-rule:nonzero;fill:#00b4b4;fill-opacity:1;stroke-width:0.03;stroke-linecap:square;stroke-linejoin:miter;stroke:#000000;stroke-opacity:1;stroke-miterlimit:3.25"
       d="M 159.886719 21.015625 L 159.886719 12.769531 L 225.675781 12.769531 L 225.675781 21.015625 Z M 159.886719 21.015625 "
       transform="matrix(1,0,0,1,-66,-5)"
       id="path984" />
    <path
       style="fill:#00b4b4;stroke-width:1;stroke-linecap:square;stroke-linejoin:miter;stroke:#000000;stroke-opacity:1;stroke-miterlimit:3.25;fill-opacity:1"
       d="M 159.886719 21.015625 L 159.886719 12.769531 L 225.675781 12.769531 L 225.675781 21.015625 Z M 159.886719 21.015625 "
       transform="matrix(1,0,0,1,-66,-5)"
       id="path986" />
    <path
       style="fill-rule:nonzero;fill:#00b4b4;fill-opacity:1;stroke-width:0.03;stroke-linecap:square;stroke-linejoin:miter;stroke:#000000;stroke-opacity:1;stroke-miterlimit:3.25"
       d="M 106.0625 46.34375 L 106.0625 19.582031 L 159.886719 19.582031 L 159.886719 46.34375 Z M 106.0625 46.34375 "
       transform="matrix(1,0,0,1,-66,-5)"
       id="path988" />
    <path
       style="fill:#00b4b4;stroke-width:1;stroke-linecap:square;stroke-linejoin:miter;stroke:#000000;stroke-opacity:1;stroke-miterlimit:3.25;fill-opacity:1"
       d="M 106.0625 46.34375 L 106.0625 19.582031 L 159.886719 19.582031 L 159.886719 46.34375 Z M 106.0625 46.34375 "
       transform="matrix(1,0,0,1,-66,-5)"
       id="path990" />
    <path
       style="fill-rule:nonzero;fill:rgb(99%, 99%, 0%);fill-opacity:1;stroke-width:0.03;stroke-linecap:square;stroke-linejoin:miter;stroke:#000000;stroke-opacity:1;stroke-miterlimit:3.25"
       d="M 357.695312 356.09375 L 357.695312 323.355469 L 386.820312 323.355469 L 386.820312 356.09375 Z M 357.695312 356.09375 "
       transform="matrix(1,0,0,1,-66,-5)"
       id="path992" />
    <path
       style="fill:#e6e600;stroke-width:1;stroke-linecap:square;stroke-linejoin:miter;stroke:#000000;stroke-opacity:1;stroke-miterlimit:3.25;fill-opacity:1"
       d="M 357.695312 356.09375 L 357.695312 323.355469 L 386.820312 323.355469 L 386.820312 356.09375 Z M 357.695312 356.09375 "
       transform="matrix(1,0,0,1,-66,-5)"
       id="path994" />
    <path
       style="fill-rule:nonzero;fill:#e6e600;fill-opacity:1;stroke-width:0.03;stroke-linecap:square;stroke-linejoin:miter;stroke:#000000;stroke-opacity:1;stroke-miterlimit:3.25"
       d="M 73.179688 73.523438 L 73.179688 43.859375 L 106.0625 43.859375 L 106.0625 73.523438 Z M 73.179688 73.523438 "
       transform="matrix(1,0,0,1,-66,-5)"
       id="path996" />
    <path
       style="fill:none;stroke-width:1;stroke-linecap:square;stroke-linejoin:miter;stroke:#000000;stroke-opacity:1;stroke-miterlimit:3.25"
       d="M 73.179688 73.523438 L 73.179688 43.859375 L 106.0625 43.859375 L 106.0625 73.523438 Z M 73.179688 73.523438 "
       transform="matrix(1,0,0,1,-66,-5)"
       id="path998" />
  </g>
</svg>
