<?xml version="1.0" encoding="UTF-8" standalone="no"?>
<svg
   xmlns:dc="http://purl.org/dc/elements/1.1/"
   xmlns:cc="http://creativecommons.org/ns#"
   xmlns:rdf="http://www.w3.org/1999/02/22-rdf-syntax-ns#"
   xmlns:svg="http://www.w3.org/2000/svg"
   xmlns="http://www.w3.org/2000/svg"
   xmlns:sodipodi="http://sodipodi.sourceforge.net/DTD/sodipodi-0.dtd"
   xmlns:inkscape="http://www.inkscape.org/namespaces/inkscape"
   width="321.28525pt"
   height="323.10724pt"
   viewBox="0 0 321.28525 323.10724"
   version="1.1"
   id="svg5004"
   inkscape:version="0.92.3 (2405546, 2018-03-11)"
   sodipodi:docname="disc3-ibexsolve.svg"
   inkscape:export-filename="/home/gilles/dis3-ibexsolve.png"
   inkscape:export-xdpi="96"
   inkscape:export-ydpi="96">
  <metadata
     id="metadata5073">
    <rdf:RDF>
      <cc:Work
         rdf:about="">
        <dc:format>image/svg+xml</dc:format>
        <dc:type
           rdf:resource="http://purl.org/dc/dcmitype/StillImage" />
        <dc:title />
      </cc:Work>
    </rdf:RDF>
  </metadata>
  <defs
     id="defs5071" />
  <sodipodi:namedview
     pagecolor="#ffffff"
     bordercolor="#666666"
     borderopacity="1"
     objecttolerance="10"
     gridtolerance="10"
     guidetolerance="10"
     inkscape:pageopacity="0"
     inkscape:pageshadow="2"
     inkscape:window-width="1853"
     inkscape:window-height="1016"
     id="namedview5069"
     showgrid="false"
     inkscape:zoom="1.0488889"
     inkscape:cx="235.06675"
     inkscape:cy="161.07109"
     inkscape:window-x="1987"
     inkscape:window-y="27"
     inkscape:window-maximized="1"
     inkscape:current-layer="surface18" />
  <g
     id="surface18"
     transform="matrix(0.88394931,0,0,0.88395188,1.4999953,2.4750807)">
    <path
       style="fill:#00b4b4;fill-opacity:1;fill-rule:nonzero;stroke:#000000;stroke-width:0.03393855;stroke-linecap:square;stroke-linejoin:miter;stroke-miterlimit:3.23930693;stroke-opacity:1"
       d="M 355.42969,120.48828 V 46.296875 h 68.88672 v 74.191405 z m 0,0"
       transform="translate(-66,-5)"
       id="path5007"
       inkscape:connector-curvature="0" />
    <path
       style="fill:#00b4b4;fill-opacity:1;stroke:#000000;stroke-width:1.13128495;stroke-linecap:square;stroke-linejoin:miter;stroke-miterlimit:3.25;stroke-opacity:1"
       d="M 355.42969,120.48828 V 46.296875 h 68.88672 v 74.191405 z m 0,0"
       transform="translate(-66,-5)"
       id="path5009"
       inkscape:connector-curvature="0" />
    <path
       style="fill:#00b4b4;fill-opacity:1;fill-rule:nonzero;stroke:#000000;stroke-width:0.03393855;stroke-linecap:square;stroke-linejoin:miter;stroke-miterlimit:3.25;stroke-opacity:1"
       d="M 317.10156,47.078125 V 17.691406 h 43.6211 v 29.386719 z m 0,0"
       transform="translate(-66,-5)"
       id="path5011"
       inkscape:connector-curvature="0" />
    <path
       style="fill:#00b4b4;fill-opacity:1;stroke:#000000;stroke-width:1.13128495;stroke-linecap:square;stroke-linejoin:miter;stroke-miterlimit:3.25;stroke-opacity:1"
       d="M 317.10156,47.078125 V 17.691406 h 43.6211 v 29.386719 z m 0,0"
       transform="translate(-66,-5)"
       id="path5013"
       inkscape:connector-curvature="0" />
    <path
       style="fill:#00b4b4;fill-opacity:1;fill-rule:nonzero;stroke:#000000;stroke-width:0.03393855;stroke-linecap:square;stroke-linejoin:miter;stroke-miterlimit:3.25;stroke-opacity:1"
       d="m 413.92578,203 v -82.51172 h 12.39453 V 203 Z m 0,0"
       transform="translate(-66,-5)"
       id="path5015"
       inkscape:connector-curvature="0" />
    <path
       style="fill:#00b4b4;fill-opacity:1;stroke:#000000;stroke-width:1.13128495;stroke-linecap:square;stroke-linejoin:miter;stroke-miterlimit:3.25;stroke-opacity:1"
       d="m 413.92578,203 v -82.51172 h 12.39453 V 203 Z m 0,0"
       transform="translate(-66,-5)"
       id="path5017"
       inkscape:connector-curvature="0" />
    <path
       style="fill:#00b4b4;fill-opacity:1;fill-rule:nonzero;stroke:#000000;stroke-width:0.03393855;stroke-linecap:square;stroke-linejoin:miter;stroke-miterlimit:3.25;stroke-opacity:1"
       d="M 228,19.816406 V 4.511719 h 89.10156 v 15.304687 z m 0,0"
       transform="translate(-66,-5)"
       id="path5019"
       inkscape:connector-curvature="0" />
    <path
       style="fill:#00b4b4;fill-opacity:1;stroke:#000000;stroke-width:1.13128495;stroke-linecap:square;stroke-linejoin:miter;stroke-miterlimit:3.25;stroke-opacity:1"
       d="M 228,19.816406 V 4.511719 h 89.10156 v 15.304687 z m 0,0"
       transform="translate(-66,-5)"
       id="path5021"
       inkscape:connector-curvature="0" />
    <path
       style="fill:#00b4b4;fill-opacity:1;fill-rule:nonzero;stroke:#000000;stroke-width:0.03393855;stroke-linecap:square;stroke-linejoin:miter;stroke-miterlimit:3.25;stroke-opacity:1"
       d="M 395.39062,284.14453 V 203 h 31.8125 v 81.14453 z m 0,0"
       transform="translate(-66,-5)"
       id="path5023"
       inkscape:connector-curvature="0" />
    <path
       style="fill:#00b4b4;fill-opacity:1;stroke:#000000;stroke-width:1.13128495;stroke-linecap:square;stroke-linejoin:miter;stroke-miterlimit:3.25;stroke-opacity:1"
       d="M 395.39062,284.14453 V 203 h 31.8125 v 81.14453 z m 0,0"
       transform="translate(-66,-5)"
       id="path5025"
       inkscape:connector-curvature="0" />
    <path
       style="fill:#00b4b4;fill-opacity:1;fill-rule:nonzero;stroke:#000000;stroke-width:0.03393855;stroke-linecap:square;stroke-linejoin:miter;stroke-miterlimit:3.25;stroke-opacity:1"
       d="m 348.93359,330.12109 v -45.97656 h 54.55469 v 45.97656 z m 0,0"
       transform="translate(-66,-5)"
       id="path5027"
       inkscape:connector-curvature="0" />
    <path
       style="fill:#00b4b4;fill-opacity:1;stroke:#000000;stroke-width:1.13128495;stroke-linecap:square;stroke-linejoin:miter;stroke-miterlimit:3.25;stroke-opacity:1"
       d="m 348.93359,330.12109 v -45.97656 h 54.55469 v 45.97656 z m 0,0"
       transform="translate(-66,-5)"
       id="path5029"
       inkscape:connector-curvature="0" />
    <path
       style="fill:#00b4b4;fill-opacity:1;fill-rule:nonzero;stroke:#000000;stroke-width:0.03393855;stroke-linecap:square;stroke-linejoin:miter;stroke-miterlimit:3.25;stroke-opacity:1"
       d="m 316.69531,351.62109 v -21.91406 h 35.79297 v 21.91406 z m 0,0"
       transform="translate(-66,-5)"
       id="path5031"
       inkscape:connector-curvature="0" />
    <path
       style="fill:#00b4b4;fill-opacity:1;stroke:#000000;stroke-width:1.13128495;stroke-linecap:square;stroke-linejoin:miter;stroke-miterlimit:3.25;stroke-opacity:1"
       d="m 316.69531,351.62109 v -21.91406 h 35.79297 v 21.91406 z m 0,0"
       transform="translate(-66,-5)"
       id="path5033"
       inkscape:connector-curvature="0" />
    <path
       style="fill:#00b4b4;fill-opacity:1;fill-rule:nonzero;stroke:#000000;stroke-width:0.03393855;stroke-linecap:square;stroke-linejoin:miter;stroke-miterlimit:3.25;stroke-opacity:1"
       d="m 228,365.47656 v -15.11328 h 88.69531 v 15.11328 z m 0,0"
       transform="translate(-66,-5)"
       id="path5035"
       inkscape:connector-curvature="0" />
    <path
       style="fill:#00b4b4;fill-opacity:1;stroke:#000000;stroke-width:1.13128495;stroke-linecap:square;stroke-linejoin:miter;stroke-miterlimit:3.25;stroke-opacity:1"
       d="m 228,365.47656 v -15.11328 h 88.69531 v 15.11328 z m 0,0"
       transform="translate(-66,-5)"
       id="path5037"
       inkscape:connector-curvature="0" />
    <path
       style="fill:#00b4b4;fill-opacity:1;fill-rule:nonzero;stroke:#000000;stroke-width:0.03393855;stroke-linecap:square;stroke-linejoin:miter;stroke-miterlimit:3.25;stroke-opacity:1"
       d="m 138.89844,41.640625 v -38.875 H 228 v 38.875 z m 0,0"
       transform="translate(-66,-5)"
       id="path5039"
       inkscape:connector-curvature="0" />
    <path
       style="fill:#00b4b4;fill-opacity:1;stroke:#000000;stroke-width:1.13128495;stroke-linecap:square;stroke-linejoin:miter;stroke-miterlimit:3.25;stroke-opacity:1"
       d="m 138.89844,41.640625 v -38.875 H 228 v 38.875 z m 0,0"
       transform="translate(-66,-5)"
       id="path5041"
       inkscape:connector-curvature="0" />
    <path
       style="fill:#00b4b4;fill-opacity:1;fill-rule:nonzero;stroke:#000000;stroke-width:0.03393855;stroke-linecap:square;stroke-linejoin:miter;stroke-miterlimit:3.25;stroke-opacity:1"
       d="M 103.58594,76.820312 V 36.09375 h 35.3125 v 40.726562 z m 0,0"
       transform="translate(-66,-5)"
       id="path5043"
       inkscape:connector-curvature="0" />
    <path
       style="fill:#00b4b4;fill-opacity:1;stroke:#000000;stroke-width:1.13128495;stroke-linecap:square;stroke-linejoin:miter;stroke-miterlimit:3.25;stroke-opacity:1"
       d="M 103.58594,76.820312 V 36.09375 h 35.3125 v 40.726562 z m 0,0"
       transform="translate(-66,-5)"
       id="path5045"
       inkscape:connector-curvature="0" />
    <path
       style="fill:#00b4b4;fill-opacity:1;fill-rule:nonzero;stroke:#000000;stroke-width:0.03393855;stroke-linecap:square;stroke-linejoin:miter;stroke-miterlimit:3.25;stroke-opacity:1"
       d="M 72.457031,129.75 V 74.917969 H 104.48828 V 129.75 Z m 0,0"
       transform="translate(-66,-5)"
       id="path5047"
       inkscape:connector-curvature="0" />
    <path
       style="fill:#00b4b4;fill-opacity:1;stroke:#000000;stroke-width:1.13128495;stroke-linecap:square;stroke-linejoin:miter;stroke-miterlimit:3.25;stroke-opacity:1"
       d="M 72.457031,129.75 V 74.917969 H 104.48828 V 129.75 Z m 0,0"
       transform="translate(-66,-5)"
       id="path5049"
       inkscape:connector-curvature="0" />
    <path
       style="fill:#00b4b4;fill-opacity:1;fill-rule:nonzero;stroke:#000000;stroke-width:0.03393855;stroke-linecap:square;stroke-linejoin:miter;stroke-miterlimit:3.25;stroke-opacity:1"
       d="M 65.835938,202.91016 V 129.75 h 8.910156 v 73.16016 z m 0,0"
       transform="translate(-66,-5)"
       id="path5051"
       inkscape:connector-curvature="0" />
    <path
       style="fill:#00b4b4;fill-opacity:1;stroke:#000000;stroke-width:1.13128495;stroke-linecap:square;stroke-linejoin:miter;stroke-miterlimit:3.25;stroke-opacity:1"
       d="M 65.835938,202.91016 V 129.75 h 8.910156 v 73.16016 z m 0,0"
       transform="translate(-66,-5)"
       id="path5053"
       inkscape:connector-curvature="0" />
    <path
       style="fill:#00b4b4;fill-opacity:1;fill-rule:nonzero;stroke:#000000;stroke-width:0.03393855;stroke-linecap:square;stroke-linejoin:miter;stroke-miterlimit:3.25;stroke-opacity:1"
       d="M 139.39062,367.16016 V 328.75781 H 228 v 38.40235 z m 0,0"
       transform="translate(-66,-5)"
       id="path5055"
       inkscape:connector-curvature="0" />
    <path
       style="fill:#00b4b4;fill-opacity:1;stroke:#000000;stroke-width:1.13128495;stroke-linecap:square;stroke-linejoin:miter;stroke-miterlimit:3.25;stroke-opacity:1"
       d="M 139.39062,367.16016 V 328.75781 H 228 v 38.40235 z m 0,0"
       transform="translate(-66,-5)"
       id="path5057"
       inkscape:connector-curvature="0" />
    <path
       style="fill:#00b4b4;fill-opacity:1;fill-rule:nonzero;stroke:#000000;stroke-width:0.03393855;stroke-linecap:square;stroke-linejoin:miter;stroke-miterlimit:3.25;stroke-opacity:1"
       d="m 65.730469,272.82812 v -69.91796 h 23.59375 v 69.91796 z m 0,0"
       transform="translate(-66,-5)"
       id="path5059"
       inkscape:connector-curvature="0" />
    <path
       style="fill:#00b4b4;fill-opacity:1;stroke:#000000;stroke-width:1.13128495;stroke-linecap:square;stroke-linejoin:miter;stroke-miterlimit:3.25;stroke-opacity:1"
       d="m 65.730469,272.82812 v -69.91796 h 23.59375 v 69.91796 z m 0,0"
       transform="translate(-66,-5)"
       id="path5061"
       inkscape:connector-curvature="0" />
    <path
       style="fill:#00b4b4;fill-opacity:1;fill-rule:nonzero;stroke:#000000;stroke-width:0.03393855;stroke-linecap:square;stroke-linejoin:miter;stroke-miterlimit:3.25;stroke-opacity:1"
       d="m 78.90625,330.03125 v -57.20313 h 65.66797 v 57.20313 z m 0,0"
       transform="translate(-66,-5)"
       id="path5063"
       inkscape:connector-curvature="0" />
    <path
       style="fill:#00b4b4;fill-opacity:1;stroke:#000000;stroke-width:1.13128495;stroke-linecap:square;stroke-linejoin:miter;stroke-miterlimit:3.25;stroke-opacity:1"
       d="m 78.90625,330.03125 v -57.20313 h 65.66797 v 57.20313 z m 0,0"
       transform="translate(-66,-5)"
       id="path5065"
       inkscape:connector-curvature="0" />
    <path
       style="fill:none;stroke:#8c0000;stroke-width:3.39385486;stroke-linecap:square;stroke-linejoin:miter;stroke-miterlimit:3.25;stroke-dasharray:none;stroke-opacity:1"
       d="M 360,179.19109 C 360,131.45281 341.0352,85.667648 307.2773,51.91374 273.5234,18.155929 227.7383,-0.80891536 180,-0.80891536 132.2617,-0.80891536 86.476603,18.155929 52.722703,51.91374 18.964803,85.667648 2.8151881e-6,131.45281 2.8151881e-6,179.19109 2.8151881e-6,226.92937 18.964803,272.71453 52.722703,306.46843 86.476603,340.22625 132.2617,359.19109 180,359.19109 c 47.7383,0 93.5234,-18.96484 127.2773,-52.72266 C 341.0352,272.71453 360,226.92937 360,179.19109 Z m 0,0"
       id="path5067"
       inkscape:connector-curvature="0" />
  </g>
</svg>
