<?xml version="1.0" encoding="UTF-8" standalone="no"?>
<svg
   xmlns:dc="http://purl.org/dc/elements/1.1/"
   xmlns:cc="http://creativecommons.org/ns#"
   xmlns:rdf="http://www.w3.org/1999/02/22-rdf-syntax-ns#"
   xmlns:svg="http://www.w3.org/2000/svg"
   xmlns="http://www.w3.org/2000/svg"
   xmlns:sodipodi="http://sodipodi.sourceforge.net/DTD/sodipodi-0.dtd"
   xmlns:inkscape="http://www.inkscape.org/namespaces/inkscape"
   width="360pt"
   height="359pt"
   viewBox="0 0 360 359"
   version="1.1"
   id="svg27"
   sodipodi:docname="disc9-ibexsolve.svg"
   inkscape:version="0.92.3 (2405546, 2018-03-11)">
  <metadata
     id="metadata33">
    <rdf:RDF>
      <cc:Work
         rdf:about="">
        <dc:format>image/svg+xml</dc:format>
        <dc:type
           rdf:resource="http://purl.org/dc/dcmitype/StillImage" />
      </cc:Work>
    </rdf:RDF>
  </metadata>
  <defs
     id="defs31" />
  <sodipodi:namedview
     pagecolor="#ffffff"
     bordercolor="#666666"
     borderopacity="1"
     objecttolerance="10"
     gridtolerance="10"
     guidetolerance="10"
     inkscape:pageopacity="0"
     inkscape:pageshadow="2"
     inkscape:window-width="1853"
     inkscape:window-height="1016"
     id="namedview29"
     showgrid="false"
     inkscape:zoom="1.394517"
     inkscape:cx="281.01573"
     inkscape:cy="251.48581"
     inkscape:window-x="1987"
     inkscape:window-y="27"
     inkscape:window-maximized="1"
     inkscape:current-layer="surface22" />
  <g
     id="surface22">
    <path
       style="fill-rule:nonzero;fill:#00b4b4;fill-opacity:1;stroke-width:0.03;stroke-linecap:square;stroke-linejoin:miter;stroke:#000000;stroke-opacity:1;stroke-miterlimit:3.239307"
       d="M 340.484375 135.09375 L 340.484375 72.234375 L 396.46875 72.234375 L 396.46875 135.09375 Z M 340.484375 135.09375 "
       transform="matrix(1,0,0,1,-66,-5)"
       id="path2" />
    <path
       style="fill:#00b4b4;stroke-width:1;stroke-linecap:square;stroke-linejoin:miter;stroke:#000000;stroke-opacity:1;stroke-miterlimit:3.25;fill-opacity:1"
       d="M 340.484375 135.09375 L 340.484375 72.234375 L 396.46875 72.234375 L 396.46875 135.09375 Z M 340.484375 135.09375 "
       transform="matrix(1,0,0,1,-66,-5)"
       id="path4" />
    <path
       style="fill-rule:nonzero;fill:#00b4b4;fill-opacity:1;stroke-width:0.03;stroke-linecap:square;stroke-linejoin:miter;stroke:#000000;stroke-opacity:1;stroke-miterlimit:3.25"
       d="M 305.503906 72.980469 L 305.503906 43.550781 L 343.511719 43.550781 L 343.511719 72.980469 Z M 305.503906 72.980469 "
       transform="matrix(1,0,0,1,-66,-5)"
       id="path6" />
    <path
       style="fill:#00b4b4;stroke-width:1;stroke-linecap:square;stroke-linejoin:miter;stroke:#000000;stroke-opacity:1;stroke-miterlimit:3.25;fill-opacity:1"
       d="M 305.503906 72.980469 L 305.503906 43.550781 L 343.511719 43.550781 L 343.511719 72.980469 Z M 305.503906 72.980469 "
       transform="matrix(1,0,0,1,-66,-5)"
       id="path8" />
    <path
       style="fill-rule:nonzero;fill:#00b4b4;fill-opacity:1;stroke-width:0.03;stroke-linecap:square;stroke-linejoin:miter;stroke:#000000;stroke-opacity:1;stroke-miterlimit:3.25"
       d="M 389.710938 208.460938 L 389.710938 135.09375 L 408.695312 135.09375 L 408.695312 208.460938 Z M 389.710938 208.460938 "
       transform="matrix(1,0,0,1,-66,-5)"
       id="path10" />
    <path
       style="fill:#00b4b4;stroke-width:1;stroke-linecap:square;stroke-linejoin:miter;stroke:#000000;stroke-opacity:1;stroke-miterlimit:3.25;fill-opacity:1"
       d="M 389.710938 208.460938 L 389.710938 135.09375 L 408.695312 135.09375 L 408.695312 208.460938 Z M 389.710938 208.460938 "
       transform="matrix(1,0,0,1,-66,-5)"
       id="path12" />
    <path
       style="fill-rule:nonzero;fill:#00b4b4;fill-opacity:1;stroke-width:0.03;stroke-linecap:square;stroke-linejoin:miter;stroke:#000000;stroke-opacity:1;stroke-miterlimit:3.25"
       d="M 221.640625 45.878906 L 221.640625 20.945312 L 305.503906 20.945312 L 305.503906 45.878906 Z M 221.640625 45.878906 "
       transform="matrix(1,0,0,1,-66,-5)"
       id="path14" />
    <path
       style="fill:#00b4b4;stroke-width:1;stroke-linecap:square;stroke-linejoin:miter;stroke:#000000;stroke-opacity:1;stroke-miterlimit:3.25;fill-opacity:1"
       d="M 221.640625 45.878906 L 221.640625 20.945312 L 305.503906 20.945312 L 305.503906 45.878906 Z M 221.640625 45.878906 "
       transform="matrix(1,0,0,1,-66,-5)"
       id="path16" />
    <path
       style="fill-rule:nonzero;fill:#e6e600;fill-opacity:1;stroke-width:0.03;stroke-linecap:square;stroke-linejoin:miter;stroke:#000000;stroke-opacity:1;stroke-miterlimit:3.25"
       d="M 346.175781 356.03125 L 346.175781 208.460938 L 417.820312 208.460938 L 417.820312 356.03125 Z M 346.175781 356.03125 "
       transform="matrix(1,0,0,1,-66,-5)"
       id="path18" />
    <path
       style="fill:none;stroke-width:1;stroke-linecap:square;stroke-linejoin:miter;stroke:#000000;stroke-opacity:1;stroke-miterlimit:3.25"
       d="M 346.175781 356.03125 L 346.175781 208.460938 L 417.820312 208.460938 L 417.820312 356.03125 Z M 346.175781 356.03125 "
       transform="matrix(1,0,0,1,-66,-5)"
       id="path20" />
    <path
       style="fill-rule:nonzero;fill:#e6e600;fill-opacity:1;stroke-width:0.03;stroke-linecap:square;stroke-linejoin:miter;stroke:#000000;stroke-opacity:1;stroke-miterlimit:3.25;font-variant-east_asian:normal;opacity:1;vector-effect:none;stroke-dasharray:none;stroke-dashoffset:0"
       d="M 73.179688 85.15625 L 73.179688 11.894531 L 221.640625 11.894531 L 221.640625 85.15625 Z M 73.179688 85.15625 "
       transform="matrix(1,0,0,1,-66,-5)"
       id="path22" />
    <path
       style="fill:none;stroke-width:1;stroke-linecap:square;stroke-linejoin:miter;stroke:#000000;stroke-opacity:1;stroke-miterlimit:3.25"
       d="M 73.179688 85.15625 L 73.179688 11.894531 L 221.640625 11.894531 L 221.640625 85.15625 Z M 73.179688 85.15625 "
       transform="matrix(1,0,0,1,-66,-5)"
       id="path24" />
  </g>
</svg>
