<?xml version="1.0" encoding="UTF-8" standalone="no"?>
<svg
   xmlns:dc="http://purl.org/dc/elements/1.1/"
   xmlns:cc="http://creativecommons.org/ns#"
   xmlns:rdf="http://www.w3.org/1999/02/22-rdf-syntax-ns#"
   xmlns:svg="http://www.w3.org/2000/svg"
   xmlns="http://www.w3.org/2000/svg"
   xmlns:sodipodi="http://sodipodi.sourceforge.net/DTD/sodipodi-0.dtd"
   xmlns:inkscape="http://www.inkscape.org/namespaces/inkscape"
   width="360pt"
   height="359pt"
   viewBox="0 0 360 359"
   version="1.1"
   id="svg1944"
   sodipodi:docname="disc11-ibexsolve.svg"
   inkscape:version="0.92.3 (2405546, 2018-03-11)">
  <metadata
     id="metadata1950">
    <rdf:RDF>
      <cc:Work
         rdf:about="">
        <dc:format>image/svg+xml</dc:format>
        <dc:type
           rdf:resource="http://purl.org/dc/dcmitype/StillImage" />
      </cc:Work>
    </rdf:RDF>
  </metadata>
  <defs
     id="defs1948" />
  <sodipodi:namedview
     pagecolor="#ffffff"
     bordercolor="#666666"
     borderopacity="1"
     objecttolerance="10"
     gridtolerance="10"
     guidetolerance="10"
     inkscape:pageopacity="0"
     inkscape:pageshadow="2"
     inkscape:window-width="1853"
     inkscape:window-height="1016"
     id="namedview1946"
     showgrid="false"
     inkscape:zoom="0.98607242"
     inkscape:cx="207.40379"
     inkscape:cy="364.24032"
     inkscape:window-x="1987"
     inkscape:window-y="27"
     inkscape:window-maximized="1"
     inkscape:current-layer="surface30" />
  <g
     id="surface30"
     style="stroke:#000000;stroke-opacity:1">
    <path
       style="fill-rule:nonzero;fill:#00b4b4;fill-opacity:1;stroke-width:0.03;stroke-linecap:square;stroke-linejoin:miter;stroke:#000000;stroke-opacity:1;stroke-miterlimit:3.239307"
       d="M 365.0625 89.679688 L 365.0625 77.757812 L 375.457031 77.757812 L 375.457031 89.679688 Z M 365.0625 89.679688 "
       transform="matrix(1,0,0,1,-66,-5)"
       id="path1771" />
    <path
       style="fill:#00b4b4;stroke-width:1;stroke-linecap:square;stroke-linejoin:miter;stroke:#000000;stroke-opacity:1;stroke-miterlimit:3.25;fill-opacity:1"
       d="M 365.0625 89.679688 L 365.0625 77.757812 L 375.457031 77.757812 L 375.457031 89.679688 Z M 365.0625 89.679688 "
       transform="matrix(1,0,0,1,-66,-5)"
       id="path1773" />
    <path
       style="fill-rule:nonzero;fill:#00b4b4;fill-opacity:1;stroke-width:0.03;stroke-linecap:square;stroke-linejoin:miter;stroke:#000000;stroke-opacity:1;stroke-miterlimit:3.25"
       d="M 375.160156 99.429688 L 375.160156 89.679688 L 382.460938 89.679688 L 382.460938 99.429688 Z M 375.160156 99.429688 "
       transform="matrix(1,0,0,1,-66,-5)"
       id="path1775" />
    <path
       style="fill:#00b4b4;stroke-width:1;stroke-linecap:square;stroke-linejoin:miter;stroke:#000000;stroke-opacity:1;stroke-miterlimit:3.25;fill-opacity:1"
       d="M 375.160156 99.429688 L 375.160156 89.679688 L 382.460938 89.679688 L 382.460938 99.429688 Z M 375.160156 99.429688 "
       transform="matrix(1,0,0,1,-66,-5)"
       id="path1777" />
    <path
       style="fill-rule:nonzero;fill:#00b4b4;fill-opacity:1;stroke-width:0.03;stroke-linecap:square;stroke-linejoin:miter;stroke:#000000;stroke-opacity:1;stroke-miterlimit:3.25"
       d="M 351.089844 77.957031 L 351.089844 63.234375 L 365.152344 63.234375 L 365.152344 77.957031 Z M 351.089844 77.957031 "
       transform="matrix(1,0,0,1,-66,-5)"
       id="path1779" />
    <path
       style="fill:#00b4b4;stroke-width:1;stroke-linecap:square;stroke-linejoin:miter;stroke:#000000;stroke-opacity:1;stroke-miterlimit:3.25;fill-opacity:1"
       d="M 351.089844 77.957031 L 351.089844 63.234375 L 365.152344 63.234375 L 365.152344 77.957031 Z M 351.089844 77.957031 "
       transform="matrix(1,0,0,1,-66,-5)"
       id="path1781" />
    <path
       style="fill-rule:nonzero;fill:#00b4b4;fill-opacity:1;stroke-width:0.03;stroke-linecap:square;stroke-linejoin:miter;stroke:#000000;stroke-opacity:1;stroke-miterlimit:3.25"
       d="M 389.773438 128.601562 L 389.773438 111.1875 L 399.175781 111.1875 L 399.175781 128.601562 Z M 389.773438 128.601562 "
       transform="matrix(1,0,0,1,-66,-5)"
       id="path1783" />
    <path
       style="fill:#00b4b4;stroke-width:1;stroke-linecap:square;stroke-linejoin:miter;stroke:#000000;stroke-opacity:1;stroke-miterlimit:3.25;fill-opacity:1"
       d="M 389.773438 128.601562 L 389.773438 111.1875 L 399.175781 111.1875 L 399.175781 128.601562 Z M 389.773438 128.601562 "
       transform="matrix(1,0,0,1,-66,-5)"
       id="path1785" />
    <path
       style="fill-rule:nonzero;fill:#00b4b4;fill-opacity:1;stroke-width:0.03;stroke-linecap:square;stroke-linejoin:miter;stroke:#000000;stroke-opacity:1;stroke-miterlimit:3.25"
       d="M 382.296875 111.1875 L 382.296875 99.429688 L 389.960938 99.429688 L 389.960938 111.1875 Z M 382.296875 111.1875 "
       transform="matrix(1,0,0,1,-66,-5)"
       id="path1787" />
    <path
       style="fill:#00b4b4;stroke-width:1;stroke-linecap:square;stroke-linejoin:miter;stroke:#000000;stroke-opacity:1;stroke-miterlimit:3.25;fill-opacity:1"
       d="M 382.296875 111.1875 L 382.296875 99.429688 L 389.960938 99.429688 L 389.960938 111.1875 Z M 382.296875 111.1875 "
       transform="matrix(1,0,0,1,-66,-5)"
       id="path1789" />
    <path
       style="fill-rule:nonzero;fill:#00b4b4;fill-opacity:1;stroke-width:0.03;stroke-linecap:square;stroke-linejoin:miter;stroke:#000000;stroke-opacity:1;stroke-miterlimit:3.25"
       d="M 322.675781 51.402344 L 322.675781 42.207031 L 335.851562 42.207031 L 335.851562 51.402344 Z M 322.675781 51.402344 "
       transform="matrix(1,0,0,1,-66,-5)"
       id="path1791" />
    <path
       style="fill:#00b4b4;stroke-width:1;stroke-linecap:square;stroke-linejoin:miter;stroke:#000000;stroke-opacity:1;stroke-miterlimit:3.25;fill-opacity:1"
       d="M 322.675781 51.402344 L 322.675781 42.207031 L 335.851562 42.207031 L 335.851562 51.402344 Z M 322.675781 51.402344 "
       transform="matrix(1,0,0,1,-66,-5)"
       id="path1793" />
    <path
       style="fill-rule:nonzero;fill:#00b4b4;fill-opacity:1;stroke-width:0.03;stroke-linecap:square;stroke-linejoin:miter;stroke:#000000;stroke-opacity:1;stroke-miterlimit:3.25"
       d="M 311.894531 42.421875 L 311.894531 36.046875 L 322.675781 36.046875 L 322.675781 42.421875 Z M 311.894531 42.421875 "
       transform="matrix(1,0,0,1,-66,-5)"
       id="path1795" />
    <path
       style="fill:#00b4b4;stroke-width:1;stroke-linecap:square;stroke-linejoin:miter;stroke:#000000;stroke-opacity:1;stroke-miterlimit:3.25;fill-opacity:1"
       d="M 311.894531 42.421875 L 311.894531 36.046875 L 322.675781 36.046875 L 322.675781 42.421875 Z M 311.894531 42.421875 "
       transform="matrix(1,0,0,1,-66,-5)"
       id="path1797" />
    <path
       style="fill-rule:nonzero;fill:#00b4b4;fill-opacity:1;stroke-width:0.03;stroke-linecap:square;stroke-linejoin:miter;stroke:#000000;stroke-opacity:1;stroke-miterlimit:3.25"
       d="M 335.851562 63.917969 L 335.851562 50.949219 L 351.089844 50.949219 L 351.089844 63.917969 Z M 335.851562 63.917969 "
       transform="matrix(1,0,0,1,-66,-5)"
       id="path1799" />
    <path
       style="fill:#00b4b4;stroke-width:1;stroke-linecap:square;stroke-linejoin:miter;stroke:#000000;stroke-opacity:1;stroke-miterlimit:3.25;fill-opacity:1"
       d="M 335.851562 63.917969 L 335.851562 50.949219 L 351.089844 50.949219 L 351.089844 63.917969 Z M 335.851562 63.917969 "
       transform="matrix(1,0,0,1,-66,-5)"
       id="path1801" />
    <path
       style="fill-rule:nonzero;fill:#00b4b4;fill-opacity:1;stroke-width:0.03;stroke-linecap:square;stroke-linejoin:miter;stroke:#000000;stroke-opacity:1;stroke-miterlimit:3.25"
       d="M 410.757812 179.664062 L 410.757812 160.832031 L 414.960938 160.832031 L 414.960938 179.664062 Z M 410.757812 179.664062 "
       transform="matrix(1,0,0,1,-66,-5)"
       id="path1803" />
    <path
       style="fill:#00b4b4;stroke-width:1;stroke-linecap:square;stroke-linejoin:miter;stroke:#000000;stroke-opacity:1;stroke-miterlimit:3.25;fill-opacity:1"
       d="M 410.757812 179.664062 L 410.757812 160.832031 L 414.960938 160.832031 L 414.960938 179.664062 Z M 410.757812 179.664062 "
       transform="matrix(1,0,0,1,-66,-5)"
       id="path1805" />
    <path
       style="fill-rule:nonzero;fill:#00b4b4;fill-opacity:1;stroke-width:0.03;stroke-linecap:square;stroke-linejoin:miter;stroke:#000000;stroke-opacity:1;stroke-miterlimit:3.25"
       d="M 407.359375 160.832031 L 407.359375 149.605469 L 410.789062 149.605469 L 410.789062 160.832031 Z M 407.359375 160.832031 "
       transform="matrix(1,0,0,1,-66,-5)"
       id="path1807" />
    <path
       style="fill:#00b4b4;stroke-width:1;stroke-linecap:square;stroke-linejoin:miter;stroke:#000000;stroke-opacity:1;stroke-miterlimit:3.25;fill-opacity:1"
       d="M 407.359375 160.832031 L 407.359375 149.605469 L 410.789062 149.605469 L 410.789062 160.832031 Z M 407.359375 160.832031 "
       transform="matrix(1,0,0,1,-66,-5)"
       id="path1809" />
    <path
       style="fill-rule:nonzero;fill:#00b4b4;fill-opacity:1;stroke-width:0.03;stroke-linecap:square;stroke-linejoin:miter;stroke:#000000;stroke-opacity:1;stroke-miterlimit:3.25"
       d="M 416.128906 204.257812 L 416.128906 187.644531 L 417.601562 187.644531 L 417.601562 204.257812 Z M 416.128906 204.257812 "
       transform="matrix(1,0,0,1,-66,-5)"
       id="path1811" />
    <path
       style="fill:#00b4b4;stroke-width:1;stroke-linecap:square;stroke-linejoin:miter;stroke:#000000;stroke-opacity:1;stroke-miterlimit:3.25;fill-opacity:1"
       d="M 416.128906 204.257812 L 416.128906 187.644531 L 417.601562 187.644531 L 417.601562 204.257812 Z M 416.128906 204.257812 "
       transform="matrix(1,0,0,1,-66,-5)"
       id="path1813" />
    <path
       style="fill-rule:nonzero;fill:#00b4b4;fill-opacity:1;stroke-width:0.03;stroke-linecap:square;stroke-linejoin:miter;stroke:#000000;stroke-opacity:1;stroke-miterlimit:3.25"
       d="M 414.925781 187.644531 L 414.925781 179.664062 L 416.132812 179.664062 L 416.132812 187.644531 Z M 414.925781 187.644531 "
       transform="matrix(1,0,0,1,-66,-5)"
       id="path1815" />
    <path
       style="fill:#00b4b4;stroke-width:1;stroke-linecap:square;stroke-linejoin:miter;stroke:#000000;stroke-opacity:1;stroke-miterlimit:3.25;fill-opacity:1"
       d="M 414.925781 187.644531 L 414.925781 179.664062 L 416.132812 179.664062 L 416.132812 187.644531 Z M 414.925781 187.644531 "
       transform="matrix(1,0,0,1,-66,-5)"
       id="path1817" />
    <path
       style="fill-rule:nonzero;fill:#00b4b4;fill-opacity:1;stroke-width:0.03;stroke-linecap:square;stroke-linejoin:miter;stroke:#000000;stroke-opacity:1;stroke-miterlimit:3.25"
       d="M 398.976562 140.152344 L 398.976562 128.601562 L 403.984375 128.601562 L 403.984375 140.152344 Z M 398.976562 140.152344 "
       transform="matrix(1,0,0,1,-66,-5)"
       id="path1819" />
    <path
       style="fill:#00b4b4;stroke-width:1;stroke-linecap:square;stroke-linejoin:miter;stroke:#000000;stroke-opacity:1;stroke-miterlimit:3.25;fill-opacity:1"
       d="M 398.976562 140.152344 L 398.976562 128.601562 L 403.984375 128.601562 L 403.984375 140.152344 Z M 398.976562 140.152344 "
       transform="matrix(1,0,0,1,-66,-5)"
       id="path1821" />
    <path
       style="fill-rule:nonzero;fill:#00b4b4;fill-opacity:1;stroke-width:0.03;stroke-linecap:square;stroke-linejoin:miter;stroke:#000000;stroke-opacity:1;stroke-miterlimit:3.25"
       d="M 403.925781 149.605469 L 403.925781 140.152344 L 407.390625 140.152344 L 407.390625 149.605469 Z M 403.925781 149.605469 "
       transform="matrix(1,0,0,1,-66,-5)"
       id="path1823" />
    <path
       style="fill:#00b4b4;stroke-width:1;stroke-linecap:square;stroke-linejoin:miter;stroke:#000000;stroke-opacity:1;stroke-miterlimit:3.25;fill-opacity:1"
       d="M 403.925781 149.605469 L 403.925781 140.152344 L 407.390625 140.152344 L 407.390625 149.605469 Z M 403.925781 149.605469 "
       transform="matrix(1,0,0,1,-66,-5)"
       id="path1825" />
    <path
       style="fill-rule:nonzero;fill:#00b4b4;fill-opacity:1;stroke-width:0.03;stroke-linecap:square;stroke-linejoin:miter;stroke:#000000;stroke-opacity:1;stroke-miterlimit:3.25"
       d="M 263.566406 20.890625 L 263.566406 17.558594 L 275.5625 17.558594 L 275.5625 20.890625 Z M 263.566406 20.890625 "
       transform="matrix(1,0,0,1,-66,-5)"
       id="path1827" />
    <path
       style="fill:#00b4b4;stroke-width:1;stroke-linecap:square;stroke-linejoin:miter;stroke:#000000;stroke-opacity:1;stroke-miterlimit:3.25;fill-opacity:1"
       d="M 263.566406 20.890625 L 263.566406 17.558594 L 275.5625 17.558594 L 275.5625 20.890625 Z M 263.566406 20.890625 "
       transform="matrix(1,0,0,1,-66,-5)"
       id="path1829" />
    <path
       style="fill-rule:nonzero;fill:#00b4b4;fill-opacity:1;stroke-width:0.03;stroke-linecap:square;stroke-linejoin:miter;stroke:#000000;stroke-opacity:1;stroke-miterlimit:3.25"
       d="M 253.753906 17.582031 L 253.753906 15.449219 L 263.566406 15.449219 L 263.566406 17.582031 Z M 253.753906 17.582031 "
       transform="matrix(1,0,0,1,-66,-5)"
       id="path1831" />
    <path
       style="fill:#00b4b4;stroke-width:1;stroke-linecap:square;stroke-linejoin:miter;stroke:#000000;stroke-opacity:1;stroke-miterlimit:3.25;fill-opacity:1"
       d="M 253.753906 17.582031 L 253.753906 15.449219 L 263.566406 15.449219 L 263.566406 17.582031 Z M 253.753906 17.582031 "
       transform="matrix(1,0,0,1,-66,-5)"
       id="path1833" />
    <path
       style="fill-rule:nonzero;fill:#00b4b4;fill-opacity:1;stroke-width:0.03;stroke-linecap:square;stroke-linejoin:miter;stroke:#000000;stroke-opacity:1;stroke-miterlimit:3.25"
       d="M 275.5625 25.335938 L 275.5625 20.84375 L 288.390625 20.84375 L 288.390625 25.335938 Z M 275.5625 25.335938 "
       transform="matrix(1,0,0,1,-66,-5)"
       id="path1835" />
    <path
       style="fill:#00b4b4;stroke-width:1;stroke-linecap:square;stroke-linejoin:miter;stroke:#000000;stroke-opacity:1;stroke-miterlimit:3.25;fill-opacity:1"
       d="M 275.5625 25.335938 L 275.5625 20.84375 L 288.390625 20.84375 L 288.390625 25.335938 Z M 275.5625 25.335938 "
       transform="matrix(1,0,0,1,-66,-5)"
       id="path1837" />
    <path
       style="fill-rule:nonzero;fill:#00b4b4;fill-opacity:1;stroke-width:0.03;stroke-linecap:square;stroke-linejoin:miter;stroke:#000000;stroke-opacity:1;stroke-miterlimit:3.25"
       d="M 225.414062 13.953125 L 225.414062 12.105469 L 244.75 12.105469 L 244.75 13.953125 Z M 225.414062 13.953125 "
       transform="matrix(1,0,0,1,-66,-5)"
       id="path1839" />
    <path
       style="fill:#00b4b4;stroke-width:1;stroke-linecap:square;stroke-linejoin:miter;stroke:#000000;stroke-opacity:1;stroke-miterlimit:3.25;fill-opacity:1"
       d="M 225.414062 13.953125 L 225.414062 12.105469 L 244.75 12.105469 L 244.75 13.953125 Z M 225.414062 13.953125 "
       transform="matrix(1,0,0,1,-66,-5)"
       id="path1841" />
    <path
       style="fill-rule:nonzero;fill:#00b4b4;fill-opacity:1;stroke-width:0.03;stroke-linecap:square;stroke-linejoin:miter;stroke:#000000;stroke-opacity:1;stroke-miterlimit:3.25"
       d="M 244.75 15.457031 L 244.75 13.949219 L 253.753906 13.949219 L 253.753906 15.457031 Z M 244.75 15.457031 "
       transform="matrix(1,0,0,1,-66,-5)"
       id="path1843" />
    <path
       style="fill:#00b4b4;stroke-width:1;stroke-linecap:square;stroke-linejoin:miter;stroke:#000000;stroke-opacity:1;stroke-miterlimit:3.25;fill-opacity:1"
       d="M 244.75 15.457031 L 244.75 13.949219 L 253.753906 13.949219 L 253.753906 15.457031 Z M 244.75 15.457031 "
       transform="matrix(1,0,0,1,-66,-5)"
       id="path1845" />
    <path
       style="fill-rule:nonzero;fill:#00b4b4;fill-opacity:1;stroke-width:0.03;stroke-linecap:square;stroke-linejoin:miter;stroke:#000000;stroke-opacity:1;stroke-miterlimit:3.25"
       d="M 298.96875 36.164062 L 298.96875 29.652344 L 311.894531 29.652344 L 311.894531 36.164062 Z M 298.96875 36.164062 "
       transform="matrix(1,0,0,1,-66,-5)"
       id="path1847" />
    <path
       style="fill:#00b4b4;stroke-width:1;stroke-linecap:square;stroke-linejoin:miter;stroke:#000000;stroke-opacity:1;stroke-miterlimit:3.25;fill-opacity:1"
       d="M 298.96875 36.164062 L 298.96875 29.652344 L 311.894531 29.652344 L 311.894531 36.164062 Z M 298.96875 36.164062 "
       transform="matrix(1,0,0,1,-66,-5)"
       id="path1849" />
    <path
       style="fill-rule:nonzero;fill:#00b4b4;fill-opacity:1;stroke-width:0.03;stroke-linecap:square;stroke-linejoin:miter;stroke:#000000;stroke-opacity:1;stroke-miterlimit:3.25"
       d="M 288.390625 29.75 L 288.390625 25.285156 L 298.96875 25.285156 L 298.96875 29.75 Z M 288.390625 29.75 "
       transform="matrix(1,0,0,1,-66,-5)"
       id="path1851" />
    <path
       style="fill:#00b4b4;stroke-width:1;stroke-linecap:square;stroke-linejoin:miter;stroke:#000000;stroke-opacity:1;stroke-miterlimit:3.25;fill-opacity:1"
       d="M 288.390625 29.75 L 288.390625 25.285156 L 298.96875 25.285156 L 298.96875 29.75 Z M 288.390625 29.75 "
       transform="matrix(1,0,0,1,-66,-5)"
       id="path1853" />
    <path
       style="fill-rule:nonzero;fill:#00b4b4;fill-opacity:1;stroke-width:0.03;stroke-linecap:square;stroke-linejoin:miter;stroke:#000000;stroke-opacity:1;stroke-miterlimit:3.25"
       d="M 417.597656 217.113281 L 417.597656 204.257812 L 417.820312 204.257812 L 417.820312 217.113281 Z M 417.597656 217.113281 "
       transform="matrix(1,0,0,1,-66,-5)"
       id="path1855" />
    <path
       style="fill:#00b4b4;stroke-width:1;stroke-linecap:square;stroke-linejoin:miter;stroke:#000000;stroke-opacity:1;stroke-miterlimit:3.25;fill-opacity:1"
       d="M 417.597656 217.113281 L 417.597656 204.257812 L 417.820312 204.257812 L 417.820312 217.113281 Z M 417.597656 217.113281 "
       transform="matrix(1,0,0,1,-66,-5)"
       id="path1857" />
    <path
       style="fill-rule:nonzero;fill:#00b4b4;fill-opacity:1;stroke-width:0.03;stroke-linecap:square;stroke-linejoin:miter;stroke:#000000;stroke-opacity:1;stroke-miterlimit:3.25"
       d="M 417.339844 227.632812 L 417.339844 217.113281 L 417.792969 217.113281 L 417.792969 227.632812 Z M 417.339844 227.632812 "
       transform="matrix(1,0,0,1,-66,-5)"
       id="path1859" />
    <path
       style="fill:#00b4b4;stroke-width:1;stroke-linecap:square;stroke-linejoin:miter;stroke:#000000;stroke-opacity:1;stroke-miterlimit:3.25;fill-opacity:1"
       d="M 417.339844 227.632812 L 417.339844 217.113281 L 417.792969 217.113281 L 417.792969 227.632812 Z M 417.339844 227.632812 "
       transform="matrix(1,0,0,1,-66,-5)"
       id="path1861" />
    <path
       style="fill-rule:nonzero;fill:#00b4b4;fill-opacity:1;stroke-width:0.03;stroke-linecap:square;stroke-linejoin:miter;stroke:#000000;stroke-opacity:1;stroke-miterlimit:3.25"
       d="M 416.945312 232.472656 L 416.945312 227.632812 L 417.339844 227.632812 L 417.339844 232.472656 Z M 416.945312 232.472656 "
       transform="matrix(1,0,0,1,-66,-5)"
       id="path1863" />
    <path
       style="fill:#00b4b4;stroke-width:1;stroke-linecap:square;stroke-linejoin:miter;stroke:#000000;stroke-opacity:1;stroke-miterlimit:3.25;fill-opacity:1"
       d="M 416.945312 232.472656 L 416.945312 227.632812 L 417.339844 227.632812 L 417.339844 232.472656 Z M 416.945312 232.472656 "
       transform="matrix(1,0,0,1,-66,-5)"
       id="path1865" />
    <path
       style="fill-rule:nonzero;fill:#00b4b4;fill-opacity:1;stroke-width:0.03;stroke-linecap:square;stroke-linejoin:miter;stroke:#000000;stroke-opacity:1;stroke-miterlimit:3.25"
       d="M 415.011719 247.246094 L 415.011719 232.472656 L 416.953125 232.472656 L 416.953125 247.246094 Z M 415.011719 247.246094 "
       transform="matrix(1,0,0,1,-66,-5)"
       id="path1867" />
    <path
       style="fill:#00b4b4;stroke-width:1;stroke-linecap:square;stroke-linejoin:miter;stroke:#000000;stroke-opacity:1;stroke-miterlimit:3.25;fill-opacity:1"
       d="M 415.011719 247.246094 L 415.011719 232.472656 L 416.953125 232.472656 L 416.953125 247.246094 Z M 415.011719 247.246094 "
       transform="matrix(1,0,0,1,-66,-5)"
       id="path1869" />
    <path
       style="fill-rule:nonzero;fill:#00b4b4;fill-opacity:1;stroke-width:0.03;stroke-linecap:square;stroke-linejoin:miter;stroke:#000000;stroke-opacity:1;stroke-miterlimit:3.25"
       d="M 413.433594 255.558594 L 413.433594 247.246094 L 415.019531 247.246094 L 415.019531 255.558594 Z M 413.433594 255.558594 "
       transform="matrix(1,0,0,1,-66,-5)"
       id="path1871" />
    <path
       style="fill:#00b4b4;stroke-width:1;stroke-linecap:square;stroke-linejoin:miter;stroke:#000000;stroke-opacity:1;stroke-miterlimit:3.25;fill-opacity:1"
       d="M 413.433594 255.558594 L 413.433594 247.246094 L 415.019531 247.246094 L 415.019531 255.558594 Z M 413.433594 255.558594 "
       transform="matrix(1,0,0,1,-66,-5)"
       id="path1873" />
    <path
       style="fill-rule:nonzero;fill:#00b4b4;fill-opacity:1;stroke-width:0.03;stroke-linecap:square;stroke-linejoin:miter;stroke:#000000;stroke-opacity:1;stroke-miterlimit:3.25"
       d="M 409.839844 269.878906 L 409.839844 255.558594 L 413.460938 255.558594 L 413.460938 269.878906 Z M 409.839844 269.878906 "
       transform="matrix(1,0,0,1,-66,-5)"
       id="path1875" />
    <path
       style="fill:#00b4b4;stroke-width:1;stroke-linecap:square;stroke-linejoin:miter;stroke:#000000;stroke-opacity:1;stroke-miterlimit:3.25;fill-opacity:1"
       d="M 409.839844 269.878906 L 409.839844 255.558594 L 413.460938 255.558594 L 413.460938 269.878906 Z M 409.839844 269.878906 "
       transform="matrix(1,0,0,1,-66,-5)"
       id="path1877" />
    <path
       style="fill-rule:nonzero;fill:#00b4b4;fill-opacity:1;stroke-width:0.03;stroke-linecap:square;stroke-linejoin:miter;stroke:#000000;stroke-opacity:1;stroke-miterlimit:3.25"
       d="M 403.300781 288.8125 L 403.300781 269.878906 L 409.933594 269.878906 L 409.933594 288.8125 Z M 403.300781 288.8125 "
       transform="matrix(1,0,0,1,-66,-5)"
       id="path1879" />
    <path
       style="fill:#00b4b4;stroke-width:1;stroke-linecap:square;stroke-linejoin:miter;stroke:#000000;stroke-opacity:1;stroke-miterlimit:3.25;fill-opacity:1"
       d="M 403.300781 288.8125 L 403.300781 269.878906 L 409.933594 269.878906 L 409.933594 288.8125 Z M 403.300781 288.8125 "
       transform="matrix(1,0,0,1,-66,-5)"
       id="path1881" />
    <path
       style="fill-rule:nonzero;fill:#00b4b4;fill-opacity:1;stroke-width:0.03;stroke-linecap:square;stroke-linejoin:miter;stroke:#000000;stroke-opacity:1;stroke-miterlimit:3.25"
       d="M 396.3125 304.304688 L 396.3125 288.8125 L 403.429688 288.8125 L 403.429688 304.304688 Z M 396.3125 304.304688 "
       transform="matrix(1,0,0,1,-66,-5)"
       id="path1883" />
    <path
       style="fill:#00b4b4;stroke-width:1;stroke-linecap:square;stroke-linejoin:miter;stroke:#000000;stroke-opacity:1;stroke-miterlimit:3.25;fill-opacity:1"
       d="M 396.3125 304.304688 L 396.3125 288.8125 L 403.429688 288.8125 L 403.429688 304.304688 Z M 396.3125 304.304688 "
       transform="matrix(1,0,0,1,-66,-5)"
       id="path1885" />
    <path
       style="fill-rule:nonzero;fill:#00b4b4;fill-opacity:1;stroke-width:0.03;stroke-linecap:square;stroke-linejoin:miter;stroke:#000000;stroke-opacity:1;stroke-miterlimit:3.25"
       d="M 385.207031 323.570312 L 385.207031 304.304688 L 396.621094 304.304688 L 396.621094 323.570312 Z M 385.207031 323.570312 "
       transform="matrix(1,0,0,1,-66,-5)"
       id="path1887" />
    <path
       style="fill:#00b4b4;stroke-width:1;stroke-linecap:square;stroke-linejoin:miter;stroke:#000000;stroke-opacity:1;stroke-miterlimit:3.25;fill-opacity:1"
       d="M 385.207031 323.570312 L 385.207031 304.304688 L 396.621094 304.304688 L 396.621094 323.570312 Z M 385.207031 323.570312 "
       transform="matrix(1,0,0,1,-66,-5)"
       id="path1889" />
    <path
       style="fill-rule:nonzero;fill:#00b4b4;fill-opacity:1;stroke-width:0.03;stroke-linecap:square;stroke-linejoin:miter;stroke:#000000;stroke-opacity:1;stroke-miterlimit:3.25"
       d="M 371.945312 341.644531 L 371.945312 323.570312 L 385.726562 323.570312 L 385.726562 341.644531 Z M 371.945312 341.644531 "
       transform="matrix(1,0,0,1,-66,-5)"
       id="path1891" />
    <path
       style="fill:#00b4b4;stroke-width:1;stroke-linecap:square;stroke-linejoin:miter;stroke:#000000;stroke-opacity:1;stroke-miterlimit:3.25;fill-opacity:1"
       d="M 371.945312 341.644531 L 371.945312 323.570312 L 385.726562 323.570312 L 385.726562 341.644531 Z M 371.945312 341.644531 "
       transform="matrix(1,0,0,1,-66,-5)"
       id="path1893" />
    <path
       style="fill-rule:nonzero;fill:#00b4b4;fill-opacity:1;stroke-width:0.03;stroke-linecap:square;stroke-linejoin:miter;stroke:#000000;stroke-opacity:1;stroke-miterlimit:3.25"
       d="M 212.5625 12.113281 L 212.5625 11.894531 L 225.414062 11.894531 L 225.414062 12.113281 Z M 212.5625 12.113281 "
       transform="matrix(1,0,0,1,-66,-5)"
       id="path1895" />
    <path
       style="fill:#00b4b4;stroke-width:1;stroke-linecap:square;stroke-linejoin:miter;stroke:#000000;stroke-opacity:1;stroke-miterlimit:3.25;fill-opacity:1"
       d="M 212.5625 12.113281 L 212.5625 11.894531 L 225.414062 11.894531 L 225.414062 12.113281 Z M 212.5625 12.113281 "
       transform="matrix(1,0,0,1,-66,-5)"
       id="path1897" />
    <path
       style="fill-rule:nonzero;fill:#00b4b4;fill-opacity:1;stroke-width:0.03;stroke-linecap:square;stroke-linejoin:miter;stroke:#000000;stroke-opacity:1;stroke-miterlimit:3.25"
       d="M 202.046875 12.375 L 202.046875 11.921875 L 212.5625 11.921875 L 212.5625 12.375 Z M 202.046875 12.375 "
       transform="matrix(1,0,0,1,-66,-5)"
       id="path1899" />
    <path
       style="fill:#00b4b4;stroke-width:1;stroke-linecap:square;stroke-linejoin:miter;stroke:#000000;stroke-opacity:1;stroke-miterlimit:3.25;fill-opacity:1"
       d="M 202.046875 12.375 L 202.046875 11.921875 L 212.5625 11.921875 L 212.5625 12.375 Z M 202.046875 12.375 "
       transform="matrix(1,0,0,1,-66,-5)"
       id="path1901" />
    <path
       style="fill-rule:nonzero;fill:#00b4b4;fill-opacity:1;stroke-width:0.03;stroke-linecap:square;stroke-linejoin:miter;stroke:#000000;stroke-opacity:1;stroke-miterlimit:3.25"
       d="M 197.195312 12.769531 L 197.195312 12.375 L 202.046875 12.375 L 202.046875 12.769531 Z M 197.195312 12.769531 "
       transform="matrix(1,0,0,1,-66,-5)"
       id="path1903" />
    <path
       style="fill:#00b4b4;stroke-width:1;stroke-linecap:square;stroke-linejoin:miter;stroke:#000000;stroke-opacity:1;stroke-miterlimit:3.25;fill-opacity:1"
       d="M 197.195312 12.769531 L 197.195312 12.375 L 202.046875 12.375 L 202.046875 12.769531 Z M 197.195312 12.769531 "
       transform="matrix(1,0,0,1,-66,-5)"
       id="path1905" />
    <path
       style="fill-rule:nonzero;fill:#00b4b4;fill-opacity:1;stroke-width:0.03;stroke-linecap:square;stroke-linejoin:miter;stroke:#000000;stroke-opacity:1;stroke-miterlimit:3.25"
       d="M 182.421875 14.707031 L 182.421875 12.761719 L 197.195312 12.761719 L 197.195312 14.707031 Z M 182.421875 14.707031 "
       transform="matrix(1,0,0,1,-66,-5)"
       id="path1907" />
    <path
       style="fill:#00b4b4;stroke-width:1;stroke-linecap:square;stroke-linejoin:miter;stroke:#000000;stroke-opacity:1;stroke-miterlimit:3.25;fill-opacity:1"
       d="M 182.421875 14.707031 L 182.421875 12.761719 L 197.195312 12.761719 L 197.195312 14.707031 Z M 182.421875 14.707031 "
       transform="matrix(1,0,0,1,-66,-5)"
       id="path1909" />
    <path
       style="fill-rule:nonzero;fill:#00b4b4;fill-opacity:1;stroke-width:0.03;stroke-linecap:square;stroke-linejoin:miter;stroke:#000000;stroke-opacity:1;stroke-miterlimit:3.25"
       d="M 174.105469 16.289062 L 174.105469 14.699219 L 182.421875 14.699219 L 182.421875 16.289062 Z M 174.105469 16.289062 "
       transform="matrix(1,0,0,1,-66,-5)"
       id="path1911" />
    <path
       style="fill:#00b4b4;stroke-width:1;stroke-linecap:square;stroke-linejoin:miter;stroke:#000000;stroke-opacity:1;stroke-miterlimit:3.25;fill-opacity:1"
       d="M 174.105469 16.289062 L 174.105469 14.699219 L 182.421875 14.699219 L 182.421875 16.289062 Z M 174.105469 16.289062 "
       transform="matrix(1,0,0,1,-66,-5)"
       id="path1913" />
    <path
       style="fill-rule:nonzero;fill:#00b4b4;fill-opacity:1;stroke-width:0.03;stroke-linecap:square;stroke-linejoin:miter;stroke:#000000;stroke-opacity:1;stroke-miterlimit:3.25"
       d="M 159.769531 19.890625 L 159.769531 16.261719 L 174.105469 16.261719 L 174.105469 19.890625 Z M 159.769531 19.890625 "
       transform="matrix(1,0,0,1,-66,-5)"
       id="path1915" />
    <path
       style="fill:#00b4b4;stroke-width:1;stroke-linecap:square;stroke-linejoin:miter;stroke:#000000;stroke-opacity:1;stroke-miterlimit:3.25;fill-opacity:1"
       d="M 159.769531 19.890625 L 159.769531 16.261719 L 174.105469 16.261719 L 174.105469 19.890625 Z M 159.769531 19.890625 "
       transform="matrix(1,0,0,1,-66,-5)"
       id="path1917" />
    <path
       style="fill-rule:nonzero;fill:#00b4b4;fill-opacity:1;stroke-width:0.03;stroke-linecap:square;stroke-linejoin:miter;stroke:#000000;stroke-opacity:1;stroke-miterlimit:3.25"
       d="M 140.828125 26.441406 L 140.828125 19.796875 L 159.769531 19.796875 L 159.769531 26.441406 Z M 140.828125 26.441406 "
       transform="matrix(1,0,0,1,-66,-5)"
       id="path1919" />
    <path
       style="fill:#00b4b4;stroke-width:1;stroke-linecap:square;stroke-linejoin:miter;stroke:#000000;stroke-opacity:1;stroke-miterlimit:3.25;fill-opacity:1"
       d="M 140.828125 26.441406 L 140.828125 19.796875 L 159.769531 19.796875 L 159.769531 26.441406 Z M 140.828125 26.441406 "
       transform="matrix(1,0,0,1,-66,-5)"
       id="path1921" />
    <path
       style="fill-rule:nonzero;fill:#00b4b4;fill-opacity:1;stroke-width:0.03;stroke-linecap:square;stroke-linejoin:miter;stroke:#000000;stroke-opacity:1;stroke-miterlimit:3.25"
       d="M 125.335938 33.4375 L 125.335938 26.308594 L 140.828125 26.308594 L 140.828125 33.4375 Z M 125.335938 33.4375 "
       transform="matrix(1,0,0,1,-66,-5)"
       id="path1923" />
    <path
       style="fill:#00b4b4;stroke-width:1;stroke-linecap:square;stroke-linejoin:miter;stroke:#000000;stroke-opacity:1;stroke-miterlimit:3.25;fill-opacity:1"
       d="M 125.335938 33.4375 L 125.335938 26.308594 L 140.828125 26.308594 L 140.828125 33.4375 Z M 125.335938 33.4375 "
       transform="matrix(1,0,0,1,-66,-5)"
       id="path1925" />
    <path
       style="fill-rule:nonzero;fill:#00b4b4;fill-opacity:1;stroke-width:0.03;stroke-linecap:square;stroke-linejoin:miter;stroke:#000000;stroke-opacity:1;stroke-miterlimit:3.25"
       d="M 106.058594 44.558594 L 106.058594 33.128906 L 125.335938 33.128906 L 125.335938 44.558594 Z M 106.058594 44.558594 "
       transform="matrix(1,0,0,1,-66,-5)"
       id="path1927" />
    <path
       style="fill:#00b4b4;stroke-width:1;stroke-linecap:square;stroke-linejoin:miter;stroke:#000000;stroke-opacity:1;stroke-miterlimit:3.25;fill-opacity:1"
       d="M 106.058594 44.558594 L 106.058594 33.128906 L 125.335938 33.128906 L 125.335938 44.558594 Z M 106.058594 44.558594 "
       transform="matrix(1,0,0,1,-66,-5)"
       id="path1929" />
    <path
       style="fill-rule:nonzero;fill:#00b4b4;fill-opacity:1;stroke-width:0.03;stroke-linecap:square;stroke-linejoin:miter;stroke:#000000;stroke-opacity:1;stroke-miterlimit:3.25"
       d="M 87.976562 57.84375 L 87.976562 44.039062 L 106.058594 44.039062 L 106.058594 57.84375 Z M 87.976562 57.84375 "
       transform="matrix(1,0,0,1,-66,-5)"
       id="path1931" />
    <path
       style="fill:#00b4b4;stroke-width:1;stroke-linecap:square;stroke-linejoin:miter;stroke:#000000;stroke-opacity:1;stroke-miterlimit:3.25;fill-opacity:1"
       d="M 87.976562 57.84375 L 87.976562 44.039062 L 106.058594 44.039062 L 106.058594 57.84375 Z M 87.976562 57.84375 "
       transform="matrix(1,0,0,1,-66,-5)"
       id="path1933" />
    <path
       style="fill-rule:nonzero;fill:rgb(99%, 99%, 0%);fill-opacity:1;stroke-width:0.03;stroke-linecap:square;stroke-linejoin:miter;stroke:#000000;stroke-opacity:1;stroke-miterlimit:3.25"
       d="M 358.535156 356.429688 L 358.535156 341.644531 L 372.570312 341.644531 L 372.570312 356.429688 Z M 358.535156 356.429688 "
       transform="matrix(1,0,0,1,-66,-5)"
       id="path1935" />
    <path
       style="fill:#e6e600;stroke-width:1;stroke-linecap:square;stroke-linejoin:miter;stroke:#000000;stroke-opacity:1;stroke-miterlimit:3.25;fill-opacity:1"
       d="M 358.535156 356.429688 L 358.535156 341.644531 L 372.570312 341.644531 L 372.570312 356.429688 Z M 358.535156 356.429688 "
       transform="matrix(1,0,0,1,-66,-5)"
       id="path1937" />
    <path
       style="fill-rule:nonzero;fill:#00b4b4;fill-opacity:1;stroke-width:0.03;stroke-linecap:square;stroke-linejoin:miter;stroke:#000000;stroke-opacity:1;stroke-miterlimit:3.25"
       d="M 73.179688 71.28125 L 73.179688 57.214844 L 87.976562 57.214844 L 87.976562 71.28125 Z M 73.179688 71.28125 "
       transform="matrix(1,0,0,1,-66,-5)"
       id="path1939" />
    <path
       style="fill:#e6e600;stroke-width:1;stroke-linecap:square;stroke-linejoin:miter;stroke:#000000;stroke-opacity:1;stroke-miterlimit:3.25;fill-opacity:1"
       d="M 73.179688 71.28125 L 73.179688 57.214844 L 87.976562 57.214844 L 87.976562 71.28125 Z M 73.179688 71.28125 "
       transform="matrix(1,0,0,1,-66,-5)"
       id="path1941" />
  </g>
</svg>
