<?xml version="1.0" encoding="UTF-8" standalone="no"?>
<svg
   xmlns:dc="http://purl.org/dc/elements/1.1/"
   xmlns:cc="http://creativecommons.org/ns#"
   xmlns:rdf="http://www.w3.org/1999/02/22-rdf-syntax-ns#"
   xmlns:svg="http://www.w3.org/2000/svg"
   xmlns="http://www.w3.org/2000/svg"
   xmlns:sodipodi="http://sodipodi.sourceforge.net/DTD/sodipodi-0.dtd"
   xmlns:inkscape="http://www.inkscape.org/namespaces/inkscape"
   sodipodi:docname="disc2-ibexsolve.svg"
   inkscape:version="0.92.3 (2405546, 2018-03-11)"
   id="svg4205"
   version="1.1"
   viewBox="0 0 367.33182 353.57495"
   height="353.57495pt"
   width="367.33182pt"
   inkscape:export-filename="/home/gilles/disc2-ibexsolve.svg.png"
   inkscape:export-xdpi="96"
   inkscape:export-ydpi="96">
  <sodipodi:namedview
     inkscape:current-layer="surface4"
     inkscape:window-maximized="1"
     inkscape:window-y="27"
     inkscape:window-x="1987"
     inkscape:cy="214.08853"
     inkscape:cx="-19.207777"
     inkscape:zoom="1.0918605"
     showgrid="true"
     id="namedview4230"
     inkscape:window-height="1016"
     inkscape:window-width="1853"
     inkscape:pageshadow="2"
     inkscape:pageopacity="0"
     guidetolerance="10"
     gridtolerance="10"
     objecttolerance="10"
     borderopacity="1"
     bordercolor="#666666"
     pagecolor="#ffffff">
    <inkscape:grid
       type="xygrid"
       id="grid4551"
       originx="11.550656"
       originy="23.574939" />
  </sodipodi:namedview>
  <metadata
     id="metadata4234">
    <rdf:RDF>
      <cc:Work
         rdf:about="">
        <dc:format>image/svg+xml</dc:format>
        <dc:type
           rdf:resource="http://purl.org/dc/dcmitype/StillImage" />
        <dc:title />
      </cc:Work>
    </rdf:RDF>
  </metadata>
  <defs
     id="defs4232">
    <marker
       inkscape:stockid="Arrow1Lstart"
       orient="auto"
       refY="0"
       refX="0"
       id="Arrow1Lstart"
       style="overflow:visible"
       inkscape:isstock="true">
      <path
         id="path4559"
         d="M 0,0 5,-5 -12.5,0 5,5 Z"
         style="fill:#000000;fill-opacity:1;fill-rule:evenodd;stroke:#000000;stroke-width:1.00000003pt;stroke-opacity:1"
         transform="matrix(0.8,0,0,0.8,10,0)"
         inkscape:connector-curvature="0" />
    </marker>
    <marker
       inkscape:stockid="Arrow1Lend"
       orient="auto"
       refY="0"
       refX="0"
       id="Arrow1Lend"
       style="overflow:visible"
       inkscape:isstock="true">
      <path
         id="path4562"
         d="M 0,0 5,-5 -12.5,0 5,5 Z"
         style="fill:#000000;fill-opacity:1;fill-rule:evenodd;stroke:#000000;stroke-width:1.00000003pt;stroke-opacity:1"
         transform="matrix(-0.8,0,0,-0.8,-10,0)"
         inkscape:connector-curvature="0" />
    </marker>
    <marker
       inkscape:stockid="Arrow1Lstart"
       orient="auto"
       refY="0"
       refX="0"
       id="Arrow1Lstart-3"
       style="overflow:visible"
       inkscape:isstock="true">
      <path
         inkscape:connector-curvature="0"
         id="path4559-6"
         d="M 0,0 5,-5 -12.5,0 5,5 Z"
         style="fill:#00b4b4;fill-opacity:1;fill-rule:evenodd;stroke:#000000;stroke-width:1.00000003pt;stroke-opacity:1"
         transform="matrix(0.8,0,0,0.8,10,0)" />
    </marker>
    <marker
       inkscape:stockid="Arrow1Lend"
       orient="auto"
       refY="0"
       refX="0"
       id="Arrow1Lend-7"
       style="overflow:visible"
       inkscape:isstock="true">
      <path
         inkscape:connector-curvature="0"
         id="path4562-5"
         d="M 0,0 5,-5 -12.5,0 5,5 Z"
         style="fill:#00b4b4;fill-opacity:1;fill-rule:evenodd;stroke:#000000;stroke-width:1.00000003pt;stroke-opacity:1"
         transform="matrix(-0.8,0,0,-0.8,-10,0)" />
    </marker>
  </defs>
  <g
     id="surface4"
     transform="matrix(1.0592281,0,0,1.0082388,-5.8373398,13.717522)"
     style="fill:#00b4b4;fill-opacity:1;stroke:#000000;stroke-opacity:1">
    <path
       style="fill:#00b4b4;fill-opacity:1;fill-rule:nonzero;stroke:#000000;stroke-width:0.96524256;stroke-linecap:square;stroke-linejoin:miter;stroke-miterlimit:3.23930693;stroke-dasharray:none;stroke-opacity:1"
       d="M 353.99609,116.57422 V 50.601562 h 61.25782 v 65.972658 z m 0,0"
       transform="translate(-66,-5)"
       id="path4208"
       inkscape:connector-curvature="0" />
    <path
       style="fill:#00b4b4;fill-opacity:1;fill-rule:nonzero;stroke:#000000;stroke-width:0.96524256;stroke-linecap:square;stroke-linejoin:miter;stroke-miterlimit:3.23930693;stroke-dasharray:none;stroke-opacity:1"
       d="M 319.91016,51.296875 V 25.164062 h 38.79296 v 26.132813 z m 0,0"
       transform="translate(-66,-5)"
       id="path4210"
       inkscape:connector-curvature="0" />
    <path
       style="fill:#00b4b4;fill-opacity:1;fill-rule:nonzero;stroke:#000000;stroke-width:0.96524256;stroke-linecap:square;stroke-linejoin:miter;stroke-miterlimit:3.23930693;stroke-dasharray:none;stroke-opacity:1"
       d="m 406.01172,189.94922 v -73.375 h 11.01953 v 73.375 z m 0,0"
       transform="translate(-66,-5)"
       id="path4212"
       inkscape:connector-curvature="0" />
    <path
       style="fill:#00b4b4;fill-opacity:1;fill-rule:nonzero;stroke:#000000;stroke-width:0.96524256;stroke-linecap:square;stroke-linejoin:miter;stroke-miterlimit:3.23930693;stroke-dasharray:none;stroke-opacity:1"
       d="M 240.67969,27.054688 V 13.445312 h 79.23047 v 13.609376 z m 0,0"
       transform="translate(-66,-5)"
       id="path4214"
       inkscape:connector-curvature="0" />
    <path
       style="fill:#00b4b4;fill-opacity:1;fill-rule:nonzero;stroke:#000000;stroke-width:0.96524256;stroke-linecap:square;stroke-linejoin:miter;stroke-miterlimit:3.23930693;stroke-dasharray:none;stroke-opacity:1"
       d="m 389.52734,262.10547 v -72.15625 h 28.29297 v 72.15625 z m 0,0"
       transform="translate(-66,-5)"
       id="path4216"
       inkscape:connector-curvature="0" />
    <path
       style="fill:#00b4b4;fill-opacity:1;fill-rule:nonzero;stroke:#000000;stroke-width:0.96524256;stroke-linecap:square;stroke-linejoin:miter;stroke-miterlimit:3.23930693;stroke-dasharray:none;stroke-opacity:1"
       d="m 319.55078,341.59766 v -92.65235 h 70.73047 v 92.65235 z m 0,0"
       transform="translate(-66,-5)"
       id="path4218"
       inkscape:connector-curvature="0" />
    <path
       style="fill:#00b4b4;fill-opacity:1;fill-rule:nonzero;stroke:#000000;stroke-width:0.96524256;stroke-linecap:square;stroke-linejoin:miter;stroke-miterlimit:3.23930693;stroke-dasharray:none;stroke-opacity:1"
       d="m 240.67969,334.42578 v -13.4375 h 78.87109 v 13.4375 z m 0,0"
       transform="translate(-66,-5)"
       id="path4220"
       inkscape:connector-curvature="0" />
    <path
       style="fill:#00b4b4;fill-opacity:1;fill-rule:nonzero;stroke:#000000;stroke-width:0.96524256;stroke-linecap:square;stroke-linejoin:miter;stroke-miterlimit:3.23930693;stroke-dasharray:none;stroke-opacity:1"
       d="M 161.44922,46.460938 V 11.894531 h 79.23047 v 34.566407 z m 0,0"
       transform="translate(-66,-5)"
       id="path4222"
       inkscape:connector-curvature="0" />
    <path
       style="fill:#00b4b4;fill-opacity:1;fill-rule:nonzero;stroke:#000000;stroke-width:0.96524256;stroke-linecap:square;stroke-linejoin:miter;stroke-miterlimit:3.23930693;stroke-dasharray:none;stroke-opacity:1"
       d="m 161.88672,335.92578 v -34.15234 h 78.79297 v 34.15234 z m 0,0"
       transform="translate(-66,-5)"
       id="path4226"
       inkscape:connector-curvature="0" />
    <path
       style="fill:#00b4b4;fill-opacity:1;fill-rule:nonzero;stroke:#000000;stroke-width:0.96524256;stroke-linecap:square;stroke-linejoin:miter;stroke-miterlimit:3.23930693;stroke-dasharray:none;stroke-opacity:1"
       d="M 74.164062,302.91016 V 189.86719 H 177.07812 v 113.04297 z m 0,0"
       transform="translate(-66,-5)"
       id="path4228"
       inkscape:connector-curvature="0" />
    <path
       style="fill:#b3b1bf;fill-opacity:1;fill-rule:nonzero;stroke:#000000;stroke-width:0.77412933;stroke-linecap:square;stroke-linejoin:miter;stroke-miterlimit:3.23930693;stroke-dasharray:none;stroke-opacity:1"
       d="M 73.179688,189.86719 V 45.296875 H 176.78125 V 189.86719 Z m 0,0"
       transform="translate(-66,-5)"
       id="path4224"
       inkscape:connector-curvature="0" />
  </g>
  <circle
     style="opacity:1;fill:none;fill-opacity:1;stroke:#00008c;stroke-width:1.60000002;stroke-miterlimit:4;stroke-dasharray:none;stroke-dashoffset:0;stroke-opacity:1"
     id="path4549"
     cx="205.8629"
     cy="183.35236"
     r="0" />
  <path
     style="fill:#00b4b4;fill-opacity:1;fill-rule:evenodd;stroke:#000000;stroke-width:0.80000001px;stroke-linecap:butt;stroke-linejoin:miter;stroke-opacity:1;marker-start:url(#Arrow1Lstart);marker-end:url(#Arrow1Lend)"
     d="M 119.55066,53.999998 V 198"
     id="path4553"
     inkscape:connector-curvature="0" />
  <circle
     style="opacity:1;fill:none;fill-opacity:1;stroke:#8c0000;stroke-width:3;stroke-miterlimit:4;stroke-dasharray:none;stroke-dashoffset:0;stroke-opacity:1"
     id="path4221"
     cx="205.39185"
     cy="183.58093"
     r="159.59999" />
  <g
     transform="matrix(1.5625386,0,0,1.5625386,-187.69472,-81.43987)"
     id="g4266"
     style="fill:#000000;fill-opacity:1;stroke:#000000;stroke-width:0.63998419;stroke-opacity:1">
    <g
       style="font-style:normal;font-variant:normal;font-weight:normal;font-stretch:normal;letter-spacing:normal;word-spacing:normal;text-anchor:start;fill:#000000;fill-opacity:1;fill-rule:evenodd;stroke:#000000;stroke-width:0.63998419;stroke-linecap:butt;stroke-linejoin:miter;stroke-miterlimit:10.43299961;stroke-dasharray:none;stroke-dashoffset:0;stroke-opacity:1"
       id="content"
       transform="matrix(0.49142857,0,0,-0.49142857,-86,270)"
       xml:space="preserve"
       stroke-miterlimit="10.433"
       font-style="normal"
       font-variant="normal"
       font-weight="normal"
       font-stretch="normal"
       font-size-adjust="none"
       letter-spacing="normal"
       word-spacing="normal"><polygon
         style="fill:#000000;fill-opacity:1;stroke:#000000;stroke-width:0;stroke-opacity:1"
         points="468.7,393.55 468.7,395.54 463.87,395.54 463.87,441.37 468.7,441.37 468.7,443.36 461.88,443.36 461.88,393.55 "
         id="polygon4269" /><path
         style="fill:#000000;fill-opacity:1;stroke:#000000;stroke-width:0;stroke-opacity:1"
         inkscape:connector-curvature="0"
         d="m 485.64,421.04 0.03,0.13 0.03,0.15 0.05,0.17 0.04,0.18 0.06,0.19 0.06,0.21 0.06,0.21 0.07,0.23 0.08,0.23 0.09,0.24 0.1,0.25 0.1,0.24 0.11,0.25 0.12,0.25 0.13,0.25 0.14,0.25 0.15,0.24 0.15,0.24 0.17,0.23 0.18,0.22 0.18,0.22 0.2,0.2 0.21,0.19 0.22,0.18 0.23,0.16 0.25,0.14 0.12,0.07 0.13,0.06 0.13,0.05 0.14,0.05 0.14,0.05 0.14,0.04 0.14,0.03 0.15,0.03 0.15,0.02 0.16,0.02 0.16,0.01 h 0.16 c 0.25,0 1.45,0 2.49,-0.65 -1.4,-0.25 -2.39,-1.49 -2.39,-2.68 0,-0.8 0.54,-1.75 1.89,-1.75 1.1,0 2.69,0.9 2.69,2.89 0,2.59 -2.94,3.29 -4.63,3.29 -2.89,0 -4.64,-2.64 -5.23,-3.79 -1.25,3.29 -3.94,3.79 -5.38,3.79 -5.18,0 -8.02,-6.43 -8.02,-7.67 0,-0.5 0.5,-0.5 0.6,-0.5 0.39,0 0.54,0.1 0.64,0.54 1.7,5.29 4.98,6.53 6.68,6.53 0.95,0 2.69,-0.45 2.69,-3.33 0,-1.55 -0.85,-4.89 -2.69,-11.86 -0.8,-3.09 -2.54,-5.18 -4.73,-5.18 -0.3,0 -1.45,0 -2.49,0.65 1.24,0.25 2.34,1.29 2.34,2.69 0,1.34 -1.1,1.74 -1.85,1.74 -1.49,0 -2.73,-1.3 -2.73,-2.89 0,-2.29 2.48,-3.29 4.68,-3.29 3.28,0 5.08,3.49 5.23,3.79 0.6,-1.85 2.39,-3.79 5.38,-3.79 5.13,0 7.97,6.43 7.97,7.67 0,0.5 -0.45,0.5 -0.6,0.5 -0.45,0 -0.55,-0.2 -0.65,-0.55 -1.64,-5.33 -5.03,-6.52 -6.62,-6.52 -1.95,0 -2.74,1.59 -2.74,3.29 0,1.09 0.29,2.19 0.85,4.38 z"
         id="path4271" /><polygon
         style="fill:#000000;fill-opacity:1;stroke:#000000;stroke-width:0;stroke-opacity:1"
         points="505.92,443.36 499.1,443.36 499.1,441.37 503.93,441.37 503.93,395.54 499.1,395.54 499.1,393.55 505.92,393.55 "
         id="polygon4273" /></g>  </g>
  <g
     id="g4331"
     transform="matrix(1.6074287,0,0,1.6074287,-97.917554,26.873712)"
     style="fill:#000000;fill-opacity:1;stroke:#000000;stroke-width:0.62211156;stroke-opacity:1">
    <g
       word-spacing="normal"
       letter-spacing="normal"
       font-size-adjust="none"
       font-stretch="normal"
       font-weight="normal"
       font-variant="normal"
       font-style="normal"
       stroke-miterlimit="10.433"
       xml:space="preserve"
       transform="matrix(0.49142857,0,0,-0.49142857,-86,270)"
       id="g4333"
       style="font-style:normal;font-variant:normal;font-weight:normal;font-stretch:normal;letter-spacing:normal;word-spacing:normal;text-anchor:start;fill:#000000;fill-opacity:1;fill-rule:evenodd;stroke:#000000;stroke-width:0.62211156;stroke-linecap:butt;stroke-linejoin:miter;stroke-miterlimit:10.43299961;stroke-dasharray:none;stroke-dashoffset:0;stroke-opacity:1"><polygon
         id="polygon4335"
         points="461.88,393.55 468.7,393.55 468.7,395.54 463.87,395.54 463.87,441.37 468.7,441.37 468.7,443.36 461.88,443.36 "
         style="fill:#000000;fill-opacity:1;stroke:#000000;stroke-width:0;stroke-opacity:1" /><path
         id="path4337"
         d="m 493.21,424.98 0.01,0.03 0.01,0.03 0.01,0.03 0.01,0.03 0.01,0.06 0.02,0.05 0.01,0.06 0.01,0.04 0.02,0.05 0.01,0.04 0.01,0.04 0.01,0.04 v 0.04 l 0.01,0.04 0.01,0.03 v 0.03 l 0.01,0.03 0.01,0.03 v 0.03 0.03 l 0.01,0.03 v 0.02 0.06 l 0.01,0.05 v 0.05 0.05 0.03 0.03 0.03 0.03 c 0,0.9 -0.7,1.35 -1.45,1.35 -0.5,0 -1.29,-0.3 -1.74,-1.05 -0.1,-0.24 -0.5,-1.79 -0.7,-2.69 -0.34,-1.29 -0.7,-2.64 -0.99,-3.98 l -2.24,-8.97 c -0.2,-0.74 -2.34,-4.23 -5.63,-4.23 -2.54,0 -3.09,2.19 -3.09,4.03 0,2.3 0.84,5.38 2.54,9.77 0.8,2.04 1,2.59 1,3.58 0,2.25 -1.6,4.09 -4.09,4.09 -4.73,0 -6.57,-7.23 -6.57,-7.67 0,-0.5 0.49,-0.5 0.59,-0.5 0.5,0 0.55,0.1 0.8,0.9 1.34,4.68 3.34,6.17 5.03,6.17 0.4,0 1.25,0 1.25,-1.59 0,-1.25 -0.5,-2.54 -0.85,-3.49 -1.99,-5.28 -2.89,-8.12 -2.89,-10.46 0,-4.43 3.14,-5.93 6.08,-5.93 1.94,0 3.63,0.85 5.03,2.25 -0.65,-2.6 -1.25,-5.04 -3.24,-7.68 -1.29,-1.69 -3.19,-3.14 -5.48,-3.14 -0.7,0 -2.94,0.16 -3.79,2.1 0.8,0 1.45,0 2.15,0.59 0.49,0.45 0.99,1.1 0.99,2.05 0,1.54 -1.34,1.74 -1.84,1.74 -1.15,0 -2.79,-0.8 -2.79,-3.24 0,-2.49 2.19,-4.33 5.28,-4.33 5.13,0 10.26,4.53 11.66,10.16 z"
         inkscape:connector-curvature="0"
         style="fill:#000000;fill-opacity:1;stroke:#000000;stroke-width:0;stroke-opacity:1" /><polygon
         id="polygon4339"
         points="503.92,393.55 503.92,443.36 497.1,443.36 497.1,441.37 501.93,441.37 501.93,395.54 497.1,395.54 497.1,393.55 "
         style="fill:#000000;fill-opacity:1;stroke:#000000;stroke-width:0;stroke-opacity:1" /></g>  </g>
  <path
     style="fill:#00b4b4;fill-opacity:1;fill-rule:evenodd;stroke:#000000;stroke-width:0.80000001px;stroke-linecap:butt;stroke-linejoin:miter;stroke-opacity:1;marker-start:url(#Arrow1Lstart-3);marker-end:url(#Arrow1Lend-7)"
     d="M 110.00543,48.271081 H 1.5530902"
     id="path4553-3"
     inkscape:connector-curvature="0" />
</svg>
